<svg id="logo-usp" xmlns="http://www.w3.org/2000/svg" viewBox="0 0 984.76 399.31" alt="Logo da Universidade de São Paulo" role="img"><title>Logo da Universidade de São Paulo</title><g id="g10"><g id="g12"><path id="path14" d="M319.37,306.16a66.66,66.66,0,0,1-66.53,66.53v26.62A93.24,93.24,0,0,0,332.68,354V306.16Zm26.62,0a66.67,66.67,0,0,0,66.54,66.53v26.62A93.25,93.25,0,0,1,332.68,354V306.16Zm319.38-213A66.65,66.65,0,0,1,731.9,26.62V0a93.23,93.23,0,0,0-79.84,45.27V93.15Zm-26.62,0h13.31V45.31A93.26,93.26,0,0,0,572.21.05V26.66A66.66,66.66,0,0,1,638.75,93.19Zm0,212.94a66.73,66.73,0,0,1-66.54,66.6v26.54a93.34,93.34,0,0,0,93.16-93.14ZM958.13,93.2h26.63A93.34,93.34,0,0,0,891.59.05V26.66A66.67,66.67,0,0,1,958.13,93.2ZM26.61,306.13H0a93.33,93.33,0,0,0,93.15,93.14V372.65A66.66,66.66,0,0,1,26.61,306.13ZM412.55.05c-48.76,0-93.26,42.06-93.18,93.12H346c0-37.83,30.91-66.55,66.54-66.57-.09-12.66-.08-16.87,0-26.55ZM665.37,372.66v26.63H825.06V266.19h159.7V93.2H958.13V239.57H825.06V93.2H798.44V372.65ZM731.9,0,891.59.05V26.69L731.9,26.62ZM665.43,247.35l-.06,58.78H638.75V258.39L483.07,102.47l18.66-18.86ZM319.37,152l163.7,163.74,18.66-18.86L346,140.93V93.17H319.37V152ZM0,.05H319.37V26.66H186.3v278.9H159.68V26.66H26.61V306.13H0Zm93.15,372.6H252.87v26.64H93.15ZM412.53.06h159.7V26.69l-159.7-.09V.06Zm0,372.63,159.7.1v26.49l-159.7,0V372.69h0" transform="translate(0 0)" class="cls-1" fill="#ffffff"></path></g></g></svg>